<svg width="32" height="32" viewBox="0 0 32 32" fill="none" xmlns="http://www.w3.org/2000/svg">
<path d="M22.6667 12.0013V9.33464C22.6667 7.86188 21.4728 6.66797 20 6.66797H6.66667C5.19391 6.66797 4 7.86188 4 9.33464V17.3346C4 18.8074 5.19391 20.0013 6.66667 20.0013H9.33333M12 25.3346H25.3333C26.8061 25.3346 28 24.1407 28 22.668V14.668C28 13.1952 26.8061 12.0013 25.3333 12.0013H12C10.5272 12.0013 9.33333 13.1952 9.33333 14.668V22.668C9.33333 24.1407 10.5272 25.3346 12 25.3346ZM21.3333 18.668C21.3333 20.1407 20.1394 21.3346 18.6667 21.3346C17.1939 21.3346 16 20.1407 16 18.668C16 17.1952 17.1939 16.0013 18.6667 16.0013C20.1394 16.0013 21.3333 17.1952 21.3333 18.668Z" stroke="#FF0020" stroke-width="2" stroke-linecap="round" stroke-linejoin="round"/>
</svg>
