<svg width="157" height="79" viewBox="0 0 157 79" fill="none" xmlns="http://www.w3.org/2000/svg">
<g filter="url(#filter0_d_364_483)">
<rect x="10.5" y="10.5" width="136" height="58" rx="10" fill="white"/>
<rect x="10.25" y="10.25" width="136.5" height="58.5" rx="10.25" stroke="#77C5C1" stroke-width="0.5"/>
<path d="M39 43.25C39 43.0511 39.079 42.8603 39.2197 42.7197C39.3603 42.579 39.5511 42.5 39.75 42.5H42.75C42.9489 42.5 43.1397 42.579 43.2803 42.7197C43.421 42.8603 43.5 43.0511 43.5 43.25C43.5 43.4489 43.421 43.6397 43.2803 43.7803C43.1397 43.921 42.9489 44 42.75 44H39.75C39.5511 44 39.3603 43.921 39.2197 43.7803C39.079 43.6397 39 43.4489 39 43.25ZM39 40.25C39 40.0511 39.079 39.8603 39.2197 39.7197C39.3603 39.579 39.5511 39.5 39.75 39.5H47.25C47.4489 39.5 47.6397 39.579 47.7803 39.7197C47.921 39.8603 48 40.0511 48 40.25C48 40.4489 47.921 40.6397 47.7803 40.7803C47.6397 40.921 47.4489 41 47.25 41H39.75C39.5511 41 39.3603 40.921 39.2197 40.7803C39.079 40.6397 39 40.4489 39 40.25ZM39 37.25C39 37.0511 39.079 36.8603 39.2197 36.7197C39.3603 36.579 39.5511 36.5 39.75 36.5H47.25C47.4489 36.5 47.6397 36.579 47.7803 36.7197C47.921 36.8603 48 37.0511 48 37.25C48 37.4489 47.921 37.6397 47.7803 37.7803C47.6397 37.921 47.4489 38 47.25 38H39.75C39.5511 38 39.3603 37.921 39.2197 37.7803C39.079 37.6397 39 37.4489 39 37.25ZM39 34.25C39 34.0511 39.079 33.8603 39.2197 33.7197C39.3603 33.579 39.5511 33.5 39.75 33.5H47.25C47.4489 33.5 47.6397 33.579 47.7803 33.7197C47.921 33.8603 48 34.0511 48 34.25C48 34.4489 47.921 34.6397 47.7803 34.7803C47.6397 34.921 47.4489 35 47.25 35H39.75C39.5511 35 39.3603 34.921 39.2197 34.7803C39.079 34.6397 39 34.4489 39 34.25Z" fill="#FF0020"/>
<path d="M36 27.5H51C51.7956 27.5 52.5587 27.8161 53.1213 28.3787C53.6839 28.9413 54 29.7044 54 30.5V48.5C54 49.2956 53.6839 50.0587 53.1213 50.6213C52.5587 51.1839 51.7956 51.5 51 51.5H36C35.2044 51.5 34.4413 51.1839 33.8787 50.6213C33.3161 50.0587 33 49.2956 33 48.5V47H34.5V48.5C34.5 48.8978 34.658 49.2794 34.9393 49.5607C35.2206 49.842 35.6022 50 36 50H51C51.3978 50 51.7794 49.842 52.0607 49.5607C52.342 49.2794 52.5 48.8978 52.5 48.5V30.5C52.5 30.1022 52.342 29.7206 52.0607 29.4393C51.7794 29.158 51.3978 29 51 29H36C35.6022 29 35.2206 29.158 34.9393 29.4393C34.658 29.7206 34.5 30.1022 34.5 30.5V32H33V30.5C33 29.7044 33.3161 28.9413 33.8787 28.3787C34.4413 27.8161 35.2044 27.5 36 27.5V27.5Z" fill="#FF0020"/>
<path d="M33 35V34.25C33 34.0511 33.079 33.8603 33.2197 33.7197C33.3603 33.579 33.5511 33.5 33.75 33.5C33.9489 33.5 34.1397 33.579 34.2803 33.7197C34.421 33.8603 34.5 34.0511 34.5 34.25V35H35.25C35.4489 35 35.6397 35.079 35.7803 35.2197C35.921 35.3603 36 35.5511 36 35.75C36 35.9489 35.921 36.1397 35.7803 36.2803C35.6397 36.421 35.4489 36.5 35.25 36.5H32.25C32.0511 36.5 31.8603 36.421 31.7197 36.2803C31.579 36.1397 31.5 35.9489 31.5 35.75C31.5 35.5511 31.579 35.3603 31.7197 35.2197C31.8603 35.079 32.0511 35 32.25 35H33ZM33 39.5V38.75C33 38.5511 33.079 38.3603 33.2197 38.2197C33.3603 38.079 33.5511 38 33.75 38C33.9489 38 34.1397 38.079 34.2803 38.2197C34.421 38.3603 34.5 38.5511 34.5 38.75V39.5H35.25C35.4489 39.5 35.6397 39.579 35.7803 39.7197C35.921 39.8603 36 40.0511 36 40.25C36 40.4489 35.921 40.6397 35.7803 40.7803C35.6397 40.921 35.4489 41 35.25 41H32.25C32.0511 41 31.8603 40.921 31.7197 40.7803C31.579 40.6397 31.5 40.4489 31.5 40.25C31.5 40.0511 31.579 39.8603 31.7197 39.7197C31.8603 39.579 32.0511 39.5 32.25 39.5H33ZM33 44V43.25C33 43.0511 33.079 42.8603 33.2197 42.7197C33.3603 42.579 33.5511 42.5 33.75 42.5C33.9489 42.5 34.1397 42.579 34.2803 42.7197C34.421 42.8603 34.5 43.0511 34.5 43.25V44H35.25C35.4489 44 35.6397 44.079 35.7803 44.2197C35.921 44.3603 36 44.5511 36 44.75C36 44.9489 35.921 45.1397 35.7803 45.2803C35.6397 45.421 35.4489 45.5 35.25 45.5H32.25C32.0511 45.5 31.8603 45.421 31.7197 45.2803C31.579 45.1397 31.5 44.9489 31.5 44.75C31.5 44.5511 31.579 44.3603 31.7197 44.2197C31.8603 44.079 32.0511 44 32.25 44H33Z" fill="#FF0020"/>
<path d="M65.002 44.14C64.05 44.14 63.2147 43.93 62.496 43.51C61.7867 43.09 61.236 42.502 60.844 41.746C60.452 40.9807 60.256 40.0847 60.256 39.058C60.256 38.2833 60.368 37.588 60.592 36.972C60.816 36.3467 61.1333 35.8147 61.544 35.376C61.964 34.928 62.4633 34.5873 63.042 34.354C63.63 34.1113 64.2833 33.99 65.002 33.99C65.9633 33.99 66.7987 34.2 67.508 34.62C68.2173 35.0307 68.768 35.614 69.16 36.37C69.552 37.126 69.748 38.0173 69.748 39.044C69.748 39.8187 69.636 40.5187 69.412 41.144C69.188 41.7693 68.866 42.306 68.446 42.754C68.0353 43.202 67.536 43.5473 66.948 43.79C66.3693 44.0233 65.7207 44.14 65.002 44.14ZM65.002 42.6C65.6087 42.6 66.122 42.46 66.542 42.18C66.9713 41.9 67.298 41.494 67.522 40.962C67.7553 40.43 67.872 39.7953 67.872 39.058C67.872 37.938 67.62 37.07 67.116 36.454C66.6213 35.838 65.9167 35.53 65.002 35.53C64.4047 35.53 63.8913 35.67 63.462 35.95C63.0327 36.2207 62.7013 36.622 62.468 37.154C62.244 37.6767 62.132 38.3113 62.132 39.058C62.132 40.1687 62.384 41.0367 62.888 41.662C63.392 42.2873 64.0967 42.6 65.002 42.6ZM74.6922 44.14C73.9642 44.14 73.3295 43.9907 72.7882 43.692C72.2562 43.3933 71.8455 42.95 71.5562 42.362C71.2669 41.7647 71.1222 41.032 71.1222 40.164V39.142C71.1222 38.218 71.2575 37.448 71.5282 36.832C71.8082 36.2067 72.2189 35.7073 72.7602 35.334C73.3109 34.9513 73.9875 34.662 74.7902 34.466L76.6102 34.018C76.8529 33.9527 77.0582 33.9667 77.2262 34.06C77.3942 34.144 77.5015 34.3027 77.5482 34.536C77.5949 34.7693 77.5575 34.97 77.4362 35.138C77.3149 35.2967 77.1282 35.404 76.8762 35.46L74.9162 35.922C74.4495 36.034 74.0575 36.2113 73.7402 36.454C73.4229 36.6873 73.1802 36.9813 73.0122 37.336C72.8535 37.6907 72.7742 38.1013 72.7742 38.568V39.324H72.5362C72.6295 38.9227 72.7882 38.5633 73.0122 38.246C73.2455 37.9287 73.5442 37.6813 73.9082 37.504C74.2722 37.3173 74.6969 37.224 75.1822 37.224C75.7515 37.224 76.2555 37.364 76.6942 37.644C77.1422 37.9147 77.4922 38.302 77.7442 38.806C77.9962 39.31 78.1222 39.912 78.1222 40.612C78.1222 41.3307 77.9775 41.956 77.6882 42.488C77.4082 43.0107 77.0115 43.4167 76.4982 43.706C75.9849 43.9953 75.3829 44.14 74.6922 44.14ZM74.6222 42.81C74.9955 42.81 75.3082 42.7307 75.5602 42.572C75.8215 42.404 76.0175 42.1613 76.1482 41.844C76.2882 41.5267 76.3582 41.1393 76.3582 40.682C76.3582 40.0007 76.2042 39.478 75.8962 39.114C75.5975 38.7407 75.1729 38.554 74.6222 38.554C74.2582 38.554 73.9455 38.638 73.6842 38.806C73.4229 38.9647 73.2222 39.198 73.0822 39.506C72.9515 39.814 72.8862 40.1827 72.8862 40.612C72.8862 41.3307 73.0355 41.8767 73.3342 42.25C73.6422 42.6233 74.0715 42.81 74.6222 42.81ZM81.3846 46.632C81.1793 46.632 81.0113 46.576 80.8806 46.464C80.75 46.3613 80.6706 46.2213 80.6426 46.044C80.624 45.8667 80.6566 45.68 80.7406 45.484L81.6926 43.37V44.098L79.1446 38.204C79.0606 37.9987 79.0326 37.8073 79.0606 37.63C79.0886 37.4527 79.1726 37.3127 79.3126 37.21C79.462 37.098 79.6626 37.042 79.9146 37.042C80.1293 37.042 80.302 37.0933 80.4326 37.196C80.5633 37.2893 80.68 37.4713 80.7826 37.742L82.6726 42.46H82.2526L84.1846 37.728C84.2873 37.4667 84.4086 37.2893 84.5486 37.196C84.6886 37.0933 84.8753 37.042 85.1086 37.042C85.314 37.042 85.4773 37.098 85.5986 37.21C85.72 37.3127 85.7946 37.4527 85.8226 37.63C85.8506 37.798 85.818 37.9847 85.7246 38.19L82.3226 45.96C82.2013 46.2213 82.0706 46.3987 81.9306 46.492C81.7906 46.5853 81.6086 46.632 81.3846 46.632ZM92.3892 44.112C92.1092 44.112 91.8945 44.0327 91.7452 43.874C91.5958 43.706 91.5212 43.4727 91.5212 43.174V41.522C91.2692 41.6433 91.0078 41.7367 90.7372 41.802C90.4758 41.858 90.2052 41.886 89.9252 41.886C88.9078 41.886 88.1518 41.6433 87.6572 41.158C87.1625 40.6633 86.9152 39.9213 86.9152 38.932V37.924C86.9152 37.6347 86.9898 37.4153 87.1392 37.266C87.2885 37.1167 87.5032 37.042 87.7832 37.042C88.0632 37.042 88.2778 37.1167 88.4272 37.266C88.5858 37.4153 88.6652 37.6347 88.6652 37.924V38.778C88.6652 39.3753 88.7865 39.8093 89.0292 40.08C89.2718 40.3413 89.6732 40.472 90.2332 40.472C90.4852 40.472 90.7138 40.444 90.9192 40.388C91.1245 40.332 91.3158 40.2433 91.4932 40.122V37.966C91.4932 37.35 91.7872 37.042 92.3752 37.042C92.6645 37.042 92.8792 37.1213 93.0192 37.28C93.1685 37.4387 93.2432 37.6673 93.2432 37.966V43.174C93.2432 43.4727 93.1732 43.706 93.0332 43.874C92.8932 44.0327 92.6785 44.112 92.3892 44.112ZM98.6222 44.14C97.8476 44.14 97.1802 43.9953 96.6202 43.706C96.0602 43.4167 95.6262 43.006 95.3182 42.474C95.0196 41.942 94.8702 41.312 94.8702 40.584C94.8702 39.8747 95.0149 39.254 95.3042 38.722C95.6029 38.19 96.0089 37.7747 96.5222 37.476C97.0449 37.168 97.6376 37.014 98.3002 37.014C98.7856 37.014 99.2196 37.0933 99.6022 37.252C99.9942 37.4107 100.326 37.6393 100.596 37.938C100.876 38.2367 101.086 38.6007 101.226 39.03C101.376 39.45 101.45 39.926 101.45 40.458C101.45 40.626 101.39 40.7567 101.268 40.85C101.156 40.934 100.993 40.976 100.778 40.976H96.2842V39.968H100.218L99.9942 40.178C99.9942 39.7487 99.9289 39.3893 99.7982 39.1C99.6769 38.8107 99.4949 38.5913 99.2522 38.442C99.0189 38.2833 98.7249 38.204 98.3702 38.204C97.9782 38.204 97.6422 38.2973 97.3622 38.484C97.0916 38.6613 96.8816 38.918 96.7322 39.254C96.5922 39.5807 96.5222 39.9727 96.5222 40.43V40.528C96.5222 41.2933 96.6996 41.8673 97.0542 42.25C97.4182 42.6233 97.9502 42.81 98.6502 42.81C98.8929 42.81 99.1636 42.782 99.4622 42.726C99.7702 42.6607 100.06 42.5533 100.33 42.404C100.526 42.292 100.699 42.2453 100.848 42.264C100.998 42.2733 101.114 42.3247 101.198 42.418C101.292 42.5113 101.348 42.628 101.366 42.768C101.385 42.8987 101.357 43.034 101.282 43.174C101.217 43.314 101.1 43.4353 100.932 43.538C100.606 43.7433 100.228 43.8973 99.7982 44C99.3782 44.0933 98.9862 44.14 98.6222 44.14ZM103.896 44.112C103.616 44.112 103.396 44.0373 103.238 43.888C103.088 43.7293 103.014 43.5053 103.014 43.216V37.924C103.014 37.6253 103.088 37.406 103.238 37.266C103.396 37.1167 103.616 37.042 103.896 37.042C104.176 37.042 104.39 37.1167 104.54 37.266C104.689 37.406 104.764 37.6253 104.764 37.924V39.8H107.788V37.924C107.788 37.6253 107.862 37.406 108.012 37.266C108.161 37.1167 108.376 37.042 108.656 37.042C108.936 37.042 109.15 37.1167 109.3 37.266C109.458 37.406 109.538 37.6253 109.538 37.924V43.216C109.538 43.5053 109.458 43.7293 109.3 43.888C109.15 44.0373 108.936 44.112 108.656 44.112C108.376 44.112 108.161 44.0373 108.012 43.888C107.862 43.7293 107.788 43.5053 107.788 43.216V41.172H104.764V43.216C104.764 43.5053 104.689 43.7293 104.54 43.888C104.4 44.0373 104.185 44.112 103.896 44.112ZM112.343 44.112C112.166 44.112 112.016 44.0793 111.895 44.014C111.774 43.9487 111.68 43.846 111.615 43.706C111.559 43.566 111.531 43.3887 111.531 43.174V37.882C111.531 37.6113 111.601 37.406 111.741 37.266C111.881 37.1167 112.077 37.042 112.329 37.042C112.581 37.042 112.772 37.1167 112.903 37.266C113.043 37.406 113.113 37.6113 113.113 37.882V42.208H112.749L116.207 37.602C116.31 37.4713 116.436 37.3453 116.585 37.224C116.734 37.1027 116.94 37.042 117.201 37.042C117.378 37.042 117.523 37.0747 117.635 37.14C117.756 37.2053 117.845 37.308 117.901 37.448C117.966 37.5787 117.999 37.7513 117.999 37.966V43.272C117.999 43.5333 117.929 43.7387 117.789 43.888C117.658 44.0373 117.467 44.112 117.215 44.112C116.954 44.112 116.753 44.0373 116.613 43.888C116.482 43.7387 116.417 43.5333 116.417 43.272V38.932H116.795L113.323 43.552C113.23 43.6827 113.108 43.8087 112.959 43.93C112.819 44.0513 112.614 44.112 112.343 44.112ZM123.368 44.14C122.594 44.14 121.926 43.9953 121.366 43.706C120.806 43.4167 120.372 43.006 120.064 42.474C119.766 41.942 119.616 41.312 119.616 40.584C119.616 39.8747 119.761 39.254 120.05 38.722C120.349 38.19 120.755 37.7747 121.268 37.476C121.791 37.168 122.384 37.014 123.046 37.014C123.532 37.014 123.966 37.0933 124.348 37.252C124.74 37.4107 125.072 37.6393 125.342 37.938C125.622 38.2367 125.832 38.6007 125.972 39.03C126.122 39.45 126.196 39.926 126.196 40.458C126.196 40.626 126.136 40.7567 126.014 40.85C125.902 40.934 125.739 40.976 125.524 40.976H121.03V39.968H124.964L124.74 40.178C124.74 39.7487 124.675 39.3893 124.544 39.1C124.423 38.8107 124.241 38.5913 123.998 38.442C123.765 38.2833 123.471 38.204 123.116 38.204C122.724 38.204 122.388 38.2973 122.108 38.484C121.838 38.6613 121.628 38.918 121.478 39.254C121.338 39.5807 121.268 39.9727 121.268 40.43V40.528C121.268 41.2933 121.446 41.8673 121.8 42.25C122.164 42.6233 122.696 42.81 123.396 42.81C123.639 42.81 123.91 42.782 124.208 42.726C124.516 42.6607 124.806 42.5533 125.076 42.404C125.272 42.292 125.445 42.2453 125.594 42.264C125.744 42.2733 125.86 42.3247 125.944 42.418C126.038 42.5113 126.094 42.628 126.112 42.768C126.131 42.8987 126.103 43.034 126.028 43.174C125.963 43.314 125.846 43.4353 125.678 43.538C125.352 43.7433 124.974 43.8973 124.544 44C124.124 44.0933 123.732 44.14 123.368 44.14Z" fill="#FF0020"/>
</g>
<defs>
<filter id="filter0_d_364_483" x="0" y="0" width="157" height="79" filterUnits="userSpaceOnUse" color-interpolation-filters="sRGB">
<feFlood flood-opacity="0" result="BackgroundImageFix"/>
<feColorMatrix in="SourceAlpha" type="matrix" values="0 0 0 0 0 0 0 0 0 0 0 0 0 0 0 0 0 0 127 0" result="hardAlpha"/>
<feOffset/>
<feGaussianBlur stdDeviation="5"/>
<feComposite in2="hardAlpha" operator="out"/>
<feColorMatrix type="matrix" values="0 0 0 0 0.827451 0 0 0 0 0.905882 0 0 0 0 0.909804 0 0 0 1 0"/>
<feBlend mode="normal" in2="BackgroundImageFix" result="effect1_dropShadow_364_483"/>
<feBlend mode="normal" in="SourceGraphic" in2="effect1_dropShadow_364_483" result="shape"/>
</filter>
</defs>
</svg>
