<svg width="45" height="55" viewBox="0 0 45 55" fill="none" xmlns="http://www.w3.org/2000/svg">
<path d="M22.4993 33.8333H28.3327L26.6936 32.1942C26.2491 31.7497 25.9993 31.1468 25.9993 30.5182V26.8333C25.9993 23.7855 24.0515 21.1926 21.3327 20.2317V19.8333C21.3327 18.5447 20.288 17.5 18.9993 17.5C17.7107 17.5 16.666 18.5447 16.666 19.8333V20.2317C13.9472 21.1926 11.9993 23.7855 11.9993 26.8333V30.5182C11.9993 31.1468 11.7496 31.7497 11.3051 32.1942L9.66602 33.8333H15.4993M22.4993 33.8333V35C22.4993 36.933 20.9323 38.5 18.9993 38.5C17.0664 38.5 15.4993 36.933 15.4993 35V33.8333M22.4993 33.8333H15.4993" stroke="#0F172A" stroke-width="2" stroke-linecap="round" stroke-linejoin="round"/>
<g clip-path="url(#clip0_410_2039)">
<rect x="21" y="9" width="15" height="14" rx="7" fill="#FF0020"/>
<path d="M28.36 19.6C28 19.6 27.6267 19.5533 27.24 19.46C26.8533 19.3667 26.5167 19.2267 26.23 19.04C26.0967 18.9533 26.0067 18.8533 25.96 18.74C25.9133 18.6267 25.9 18.52 25.92 18.42C25.9467 18.3133 25.9967 18.2233 26.07 18.15C26.15 18.0767 26.2467 18.0333 26.36 18.02C26.48 18.0067 26.61 18.0367 26.75 18.11C27.0233 18.2567 27.2867 18.3633 27.54 18.43C27.7933 18.49 28.0533 18.52 28.32 18.52C28.6133 18.52 28.86 18.48 29.06 18.4C29.26 18.32 29.41 18.2 29.51 18.04C29.6167 17.88 29.67 17.6867 29.67 17.46C29.67 17.1267 29.5567 16.88 29.33 16.72C29.11 16.5533 28.7867 16.47 28.36 16.47H27.72C27.5333 16.47 27.39 16.4233 27.29 16.33C27.1967 16.2367 27.15 16.1067 27.15 15.94C27.15 15.7733 27.1967 15.6433 27.29 15.55C27.39 15.4567 27.5333 15.41 27.72 15.41H28.24C28.4933 15.41 28.71 15.37 28.89 15.29C29.07 15.2033 29.21 15.0833 29.31 14.93C29.41 14.7767 29.46 14.59 29.46 14.37C29.46 14.0633 29.3567 13.83 29.15 13.67C28.95 13.51 28.6567 13.43 28.27 13.43C28.0233 13.43 27.79 13.46 27.57 13.52C27.3567 13.5733 27.12 13.6767 26.86 13.83C26.74 13.9033 26.6233 13.9333 26.51 13.92C26.4033 13.9067 26.3133 13.8633 26.24 13.79C26.1667 13.7167 26.1167 13.63 26.09 13.53C26.0633 13.4233 26.07 13.3167 26.11 13.21C26.15 13.0967 26.2333 13 26.36 12.92C26.6467 12.7333 26.9633 12.5933 27.31 12.5C27.6567 12.4 28.0133 12.35 28.38 12.35C28.8667 12.35 29.2833 12.4267 29.63 12.58C29.9767 12.7267 30.24 12.94 30.42 13.22C30.6067 13.4933 30.7 13.8267 30.7 14.22C30.7 14.5 30.6467 14.7567 30.54 14.99C30.4333 15.2167 30.2833 15.41 30.09 15.57C29.8967 15.73 29.6633 15.8433 29.39 15.91V15.79C29.87 15.87 30.2433 16.07 30.51 16.39C30.7767 16.7033 30.91 17.0967 30.91 17.57C30.91 17.9833 30.8067 18.3433 30.6 18.65C30.3933 18.9567 30.1 19.1933 29.72 19.36C29.34 19.52 28.8867 19.6 28.36 19.6Z" fill="white"/>
</g>
<defs>
<clipPath id="clip0_410_2039">
<rect x="21" y="9" width="15" height="14" rx="7" fill="white"/>
</clipPath>
</defs>
</svg>
