<svg width="157" height="79" viewBox="0 0 157 79" fill="none" xmlns="http://www.w3.org/2000/svg">
<g filter="url(#filter0_d_364_884)">
<rect x="10.5" y="10.5" width="136" height="58" rx="10" fill="white"/>
<rect x="10.25" y="10.25" width="136.5" height="58.5" rx="10.25" stroke="#77C5C1" stroke-width="0.5"/>
<path d="M36.875 36.75V46.875C36.875 48.1177 37.8824 49.125 39.125 49.125H54.875C56.1177 49.125 57.125 48.1177 57.125 46.875V36.75" stroke="#FF0020" stroke-width="1.5"/>
<path d="M50.1875 49.125V42.375C50.1875 41.1323 49.1802 40.125 47.9375 40.125H45.6875C44.4449 40.125 43.4375 41.1323 43.4375 42.375V49.125" stroke="#FF0020" stroke-width="1.5" stroke-miterlimit="16"/>
<path d="M58.0456 36.0347L56.1398 29.3646C56.057 29.0748 55.7922 28.875 55.4908 28.875H50.9375L51.4722 35.2917C51.4898 35.5017 51.6038 35.6914 51.7849 35.7993C52.2228 36.0604 53.0809 36.5441 53.75 36.75C54.8928 37.1016 56.5634 36.9748 57.5148 36.8578C57.9105 36.8092 58.1552 36.418 58.0456 36.0347Z" stroke="#FF0020" stroke-width="1.5"/>
<path d="M49.2498 36.75C49.8882 36.5536 50.6986 36.1041 51.152 35.8366C51.3679 35.7092 51.4867 35.4687 51.4659 35.2189L50.9373 28.875H43.0623L42.5336 35.2189C42.5128 35.4687 42.6316 35.7092 42.8474 35.8366C43.3008 36.1041 44.1113 36.5536 44.7498 36.75C46.4294 37.2668 47.5701 37.2668 49.2498 36.75Z" stroke="#FF0020" stroke-width="1.5"/>
<path d="M37.8597 29.3646L35.9539 36.0347C35.8444 36.418 36.0891 36.8092 36.4848 36.8578C37.4361 36.9748 39.1068 37.1016 40.2496 36.75C40.9187 36.5441 41.7768 36.0604 42.2147 35.7993C42.3957 35.6914 42.5098 35.5017 42.5273 35.2917L43.0621 28.875H38.5087C38.2073 28.875 37.9425 29.0748 37.8597 29.3646Z" stroke="#FF0020" stroke-width="1.5"/>
<path d="M67.418 43.612C67.1567 43.612 66.956 43.5373 66.816 43.388C66.676 43.2387 66.606 43.0333 66.606 42.772V34.358C66.606 34.0873 66.6807 33.882 66.83 33.742C66.9793 33.5927 67.1847 33.518 67.446 33.518C67.6793 33.518 67.8613 33.5647 67.992 33.658C68.132 33.742 68.258 33.8913 68.37 34.106L71.828 40.504H71.38L74.838 34.106C74.95 33.8913 75.0713 33.742 75.202 33.658C75.3327 33.5647 75.5147 33.518 75.748 33.518C76.0093 33.518 76.21 33.5927 76.35 33.742C76.49 33.882 76.56 34.0873 76.56 34.358V42.772C76.56 43.0333 76.49 43.2387 76.35 43.388C76.2193 43.5373 76.0187 43.612 75.748 43.612C75.4867 43.612 75.286 43.5373 75.146 43.388C75.006 43.2387 74.936 43.0333 74.936 42.772V36.29H75.244L72.304 41.652C72.2107 41.8107 72.1127 41.9273 72.01 42.002C71.9073 42.0767 71.7673 42.114 71.59 42.114C71.4127 42.114 71.268 42.0767 71.156 42.002C71.044 41.918 70.946 41.8013 70.862 41.652L67.894 36.276H68.23V42.772C68.23 43.0333 68.16 43.2387 68.02 43.388C67.8893 43.5373 67.6887 43.612 67.418 43.612ZM80.9163 43.64C80.4216 43.64 79.9783 43.5467 79.5863 43.36C79.2036 43.164 78.9003 42.9027 78.6763 42.576C78.4616 42.2493 78.3543 41.8807 78.3543 41.47C78.3543 40.966 78.485 40.5693 78.7463 40.28C79.0076 39.9813 79.4323 39.7667 80.0203 39.636C80.6083 39.5053 81.397 39.44 82.3863 39.44H83.0863V40.448H82.4003C81.8216 40.448 81.3596 40.476 81.0143 40.532C80.669 40.588 80.4216 40.686 80.2723 40.826C80.1323 40.9567 80.0623 41.1433 80.0623 41.386C80.0623 41.694 80.1696 41.946 80.3843 42.142C80.599 42.338 80.8976 42.436 81.2803 42.436C81.5883 42.436 81.859 42.366 82.0923 42.226C82.335 42.0767 82.5263 41.876 82.6663 41.624C82.8063 41.372 82.8763 41.0827 82.8763 40.756V39.146C82.8763 38.6793 82.7736 38.3433 82.5683 38.138C82.363 37.9327 82.0176 37.83 81.5323 37.83C81.2616 37.83 80.9676 37.8627 80.6503 37.928C80.3423 37.9933 80.0156 38.1053 79.6703 38.264C79.493 38.348 79.3343 38.3713 79.1943 38.334C79.0636 38.2967 78.961 38.222 78.8863 38.11C78.8116 37.9887 78.7743 37.858 78.7743 37.718C78.7743 37.578 78.8116 37.4427 78.8863 37.312C78.961 37.172 79.087 37.0693 79.2643 37.004C79.6936 36.8267 80.1043 36.7007 80.4963 36.626C80.8976 36.5513 81.2616 36.514 81.5883 36.514C82.2603 36.514 82.811 36.6167 83.2403 36.822C83.679 37.0273 84.0056 37.34 84.2203 37.76C84.435 38.1707 84.5423 38.7027 84.5423 39.356V42.716C84.5423 43.0053 84.4723 43.2293 84.3323 43.388C84.1923 43.5373 83.9916 43.612 83.7303 43.612C83.469 43.612 83.2636 43.5373 83.1143 43.388C82.9743 43.2293 82.9043 43.0053 82.9043 42.716V42.044H83.0163C82.951 42.3707 82.8203 42.6553 82.6243 42.898C82.4376 43.1313 82.1996 43.3133 81.9103 43.444C81.621 43.5747 81.2896 43.64 80.9163 43.64ZM87.378 43.612C87.098 43.612 86.8786 43.5327 86.72 43.374C86.5706 43.2153 86.496 42.9913 86.496 42.702V37.634C86.496 37.3167 86.58 37.074 86.748 36.906C86.916 36.738 87.1586 36.654 87.476 36.654H91.046C91.298 36.654 91.4846 36.71 91.606 36.822C91.7273 36.934 91.788 37.1067 91.788 37.34C91.788 37.564 91.7273 37.7367 91.606 37.858C91.4846 37.97 91.298 38.026 91.046 38.026H88.246V42.702C88.246 43.3087 87.9566 43.612 87.378 43.612ZM95.1624 43.64C94.6677 43.64 94.2244 43.5467 93.8324 43.36C93.4497 43.164 93.1464 42.9027 92.9224 42.576C92.7077 42.2493 92.6004 41.8807 92.6004 41.47C92.6004 40.966 92.7311 40.5693 92.9924 40.28C93.2537 39.9813 93.6784 39.7667 94.2664 39.636C94.8544 39.5053 95.6431 39.44 96.6324 39.44H97.3324V40.448H96.6464C96.0677 40.448 95.6057 40.476 95.2604 40.532C94.9151 40.588 94.6677 40.686 94.5184 40.826C94.3784 40.9567 94.3084 41.1433 94.3084 41.386C94.3084 41.694 94.4157 41.946 94.6304 42.142C94.8451 42.338 95.1437 42.436 95.5264 42.436C95.8344 42.436 96.1051 42.366 96.3384 42.226C96.5811 42.0767 96.7724 41.876 96.9124 41.624C97.0524 41.372 97.1224 41.0827 97.1224 40.756V39.146C97.1224 38.6793 97.0197 38.3433 96.8144 38.138C96.6091 37.9327 96.2637 37.83 95.7784 37.83C95.5077 37.83 95.2137 37.8627 94.8964 37.928C94.5884 37.9933 94.2617 38.1053 93.9164 38.264C93.7391 38.348 93.5804 38.3713 93.4404 38.334C93.3097 38.2967 93.2071 38.222 93.1324 38.11C93.0577 37.9887 93.0204 37.858 93.0204 37.718C93.0204 37.578 93.0577 37.4427 93.1324 37.312C93.2071 37.172 93.3331 37.0693 93.5104 37.004C93.9397 36.8267 94.3504 36.7007 94.7424 36.626C95.1437 36.5513 95.5077 36.514 95.8344 36.514C96.5064 36.514 97.0571 36.6167 97.4864 36.822C97.9251 37.0273 98.2517 37.34 98.4664 37.76C98.6811 38.1707 98.7884 38.7027 98.7884 39.356V42.716C98.7884 43.0053 98.7184 43.2293 98.5784 43.388C98.4384 43.5373 98.2377 43.612 97.9764 43.612C97.7151 43.612 97.5097 43.5373 97.3604 43.388C97.2204 43.2293 97.1504 43.0053 97.1504 42.716V42.044H97.2624C97.1971 42.3707 97.0664 42.6553 96.8704 42.898C96.6837 43.1313 96.4457 43.3133 96.1564 43.444C95.8671 43.5747 95.5357 43.64 95.1624 43.64ZM103.276 43.64C102.8 43.64 102.338 43.5933 101.89 43.5C101.442 43.416 101.041 43.29 100.686 43.122C100.518 43.038 100.397 42.9353 100.322 42.814C100.247 42.6833 100.21 42.5527 100.21 42.422C100.219 42.282 100.261 42.1607 100.336 42.058C100.42 41.9553 100.532 41.89 100.672 41.862C100.812 41.834 100.975 41.8667 101.162 41.96C101.461 42.1 101.792 42.2073 102.156 42.282C102.529 42.3473 102.889 42.38 103.234 42.38C103.831 42.38 104.256 42.31 104.508 42.17C104.76 42.0207 104.886 41.7967 104.886 41.498C104.886 41.2273 104.788 41.022 104.592 40.882C104.396 40.742 104.116 40.672 103.752 40.672H102.506C102.291 40.672 102.123 40.616 102.002 40.504C101.881 40.3827 101.82 40.224 101.82 40.028C101.82 39.832 101.881 39.6827 102.002 39.58C102.123 39.468 102.291 39.412 102.506 39.412H103.584C103.911 39.412 104.167 39.3467 104.354 39.216C104.541 39.076 104.634 38.88 104.634 38.628C104.634 38.3573 104.522 38.1473 104.298 37.998C104.083 37.8487 103.691 37.774 103.122 37.774C102.795 37.774 102.478 37.8067 102.17 37.872C101.862 37.928 101.559 38.0213 101.26 38.152C101.036 38.2453 100.845 38.264 100.686 38.208C100.537 38.1427 100.429 38.0353 100.364 37.886C100.299 37.7367 100.294 37.5827 100.35 37.424C100.406 37.2653 100.532 37.1393 100.728 37.046C101.139 36.8593 101.563 36.724 102.002 36.64C102.45 36.556 102.921 36.514 103.416 36.514C104.331 36.514 105.026 36.6867 105.502 37.032C105.987 37.368 106.23 37.8393 106.23 38.446C106.23 38.8753 106.085 39.2393 105.796 39.538C105.507 39.8273 105.119 40.0047 104.634 40.07V39.874C105.213 39.9113 105.665 40.0793 105.992 40.378C106.319 40.6767 106.482 41.078 106.482 41.582C106.482 42.2073 106.207 42.7067 105.656 43.08C105.105 43.4533 104.312 43.64 103.276 43.64ZM108.827 43.612C108.65 43.612 108.501 43.5793 108.379 43.514C108.258 43.4487 108.165 43.346 108.099 43.206C108.043 43.066 108.015 42.8887 108.015 42.674V37.382C108.015 37.1113 108.085 36.906 108.225 36.766C108.365 36.6167 108.561 36.542 108.813 36.542C109.065 36.542 109.257 36.6167 109.387 36.766C109.527 36.906 109.597 37.1113 109.597 37.382V41.708H109.233L112.691 37.102C112.794 36.9713 112.92 36.8453 113.069 36.724C113.219 36.6027 113.424 36.542 113.685 36.542C113.863 36.542 114.007 36.5747 114.119 36.64C114.241 36.7053 114.329 36.808 114.385 36.948C114.451 37.0787 114.483 37.2513 114.483 37.466V42.772C114.483 43.0333 114.413 43.2387 114.273 43.388C114.143 43.5373 113.951 43.612 113.699 43.612C113.438 43.612 113.237 43.5373 113.097 43.388C112.967 43.2387 112.901 43.0333 112.901 42.772V38.432H113.279L109.807 43.052C109.714 43.1827 109.593 43.3087 109.443 43.43C109.303 43.5513 109.098 43.612 108.827 43.612ZM117.347 43.612C117.067 43.612 116.847 43.5373 116.689 43.388C116.539 43.2293 116.465 43.0053 116.465 42.716V37.424C116.465 37.1253 116.539 36.906 116.689 36.766C116.847 36.6167 117.067 36.542 117.347 36.542C117.627 36.542 117.841 36.6167 117.991 36.766C118.14 36.906 118.215 37.1253 118.215 37.424V39.3H121.239V37.424C121.239 37.1253 121.313 36.906 121.463 36.766C121.612 36.6167 121.827 36.542 122.107 36.542C122.387 36.542 122.601 36.6167 122.751 36.766C122.909 36.906 122.989 37.1253 122.989 37.424V42.716C122.989 43.0053 122.909 43.2293 122.751 43.388C122.601 43.5373 122.387 43.612 122.107 43.612C121.827 43.612 121.612 43.5373 121.463 43.388C121.313 43.2293 121.239 43.0053 121.239 42.716V40.672H118.215V42.716C118.215 43.0053 118.14 43.2293 117.991 43.388C117.851 43.5373 117.636 43.612 117.347 43.612Z" fill="#FF0020"/>
</g>
<defs>
<filter id="filter0_d_364_884" x="0" y="0" width="157" height="79" filterUnits="userSpaceOnUse" color-interpolation-filters="sRGB">
<feFlood flood-opacity="0" result="BackgroundImageFix"/>
<feColorMatrix in="SourceAlpha" type="matrix" values="0 0 0 0 0 0 0 0 0 0 0 0 0 0 0 0 0 0 127 0" result="hardAlpha"/>
<feOffset/>
<feGaussianBlur stdDeviation="5"/>
<feComposite in2="hardAlpha" operator="out"/>
<feColorMatrix type="matrix" values="0 0 0 0 0.827451 0 0 0 0 0.905882 0 0 0 0 0.909804 0 0 0 1 0"/>
<feBlend mode="normal" in2="BackgroundImageFix" result="effect1_dropShadow_364_884"/>
<feBlend mode="normal" in="SourceGraphic" in2="effect1_dropShadow_364_884" result="shape"/>
</filter>
</defs>
</svg>
