<svg width="157" height="79" viewBox="0 0 157 79" fill="none" xmlns="http://www.w3.org/2000/svg">
<g filter="url(#filter0_d_364_878)">
<rect x="10.5" y="10.5" width="136" height="58" rx="10" fill="white"/>
<rect x="10.25" y="10.25" width="136.5" height="58.5" rx="10.25" stroke="#77C5C1" stroke-width="0.5"/>
<path d="M62.1667 35.4998V32.8332C62.1667 31.3604 60.9728 30.1665 59.5 30.1665H46.1667C44.6939 30.1665 43.5 31.3604 43.5 32.8332V40.8332C43.5 42.3059 44.6939 43.4998 46.1667 43.4998H48.8333M51.5 48.8332H64.8333C66.3061 48.8332 67.5 47.6393 67.5 46.1665V38.1665C67.5 36.6937 66.3061 35.4998 64.8333 35.4998H51.5C50.0272 35.4998 48.8333 36.6937 48.8333 38.1665V46.1665C48.8333 47.6393 50.0272 48.8332 51.5 48.8332ZM60.8333 42.1665C60.8333 43.6393 59.6394 44.8332 58.1667 44.8332C56.6939 44.8332 55.5 43.6393 55.5 42.1665C55.5 40.6937 56.6939 39.4998 58.1667 39.4998C59.6394 39.4998 60.8333 40.6937 60.8333 42.1665Z" stroke="#FF0020" stroke-width="2" stroke-linecap="round" stroke-linejoin="round"/>
<path d="M75.53 44C75.222 44 74.984 43.9207 74.816 43.762C74.6573 43.594 74.578 43.356 74.578 43.048V35.082C74.578 34.774 74.6573 34.5407 74.816 34.382C74.984 34.214 75.222 34.13 75.53 34.13H80.822C81.0553 34.13 81.2327 34.1907 81.354 34.312C81.4847 34.4333 81.55 34.606 81.55 34.83C81.55 35.0633 81.4847 35.2453 81.354 35.376C81.2327 35.4973 81.0553 35.558 80.822 35.558H76.3V38.246H79.044C80.0987 38.246 80.92 38.4887 81.508 38.974C82.1053 39.4593 82.404 40.1733 82.404 41.116C82.404 42.0493 82.1053 42.7633 81.508 43.258C80.92 43.7527 80.0987 44 79.044 44H75.53ZM76.3 42.572H78.82C79.4547 42.572 79.9213 42.4553 80.22 42.222C80.5187 41.9793 80.668 41.6107 80.668 41.116C80.668 40.6213 80.5187 40.2573 80.22 40.024C79.9213 39.7907 79.4547 39.674 78.82 39.674H76.3V42.572ZM86.1819 44.14C85.6873 44.14 85.2439 44.0467 84.8519 43.86C84.4693 43.664 84.1659 43.4027 83.9419 43.076C83.7273 42.7493 83.6199 42.3807 83.6199 41.97C83.6199 41.466 83.7506 41.0693 84.0119 40.78C84.2733 40.4813 84.6979 40.2667 85.2859 40.136C85.8739 40.0053 86.6626 39.94 87.6519 39.94H88.3519V40.948H87.6659C87.0873 40.948 86.6253 40.976 86.2799 41.032C85.9346 41.088 85.6873 41.186 85.5379 41.326C85.3979 41.4567 85.3279 41.6433 85.3279 41.886C85.3279 42.194 85.4353 42.446 85.6499 42.642C85.8646 42.838 86.1633 42.936 86.5459 42.936C86.8539 42.936 87.1246 42.866 87.3579 42.726C87.6006 42.5767 87.7919 42.376 87.9319 42.124C88.0719 41.872 88.1419 41.5827 88.1419 41.256V39.646C88.1419 39.1793 88.0393 38.8433 87.8339 38.638C87.6286 38.4327 87.2833 38.33 86.7979 38.33C86.5273 38.33 86.2333 38.3627 85.9159 38.428C85.6079 38.4933 85.2813 38.6053 84.9359 38.764C84.7586 38.848 84.5999 38.8713 84.4599 38.834C84.3293 38.7967 84.2266 38.722 84.1519 38.61C84.0773 38.4887 84.0399 38.358 84.0399 38.218C84.0399 38.078 84.0773 37.9427 84.1519 37.812C84.2266 37.672 84.3526 37.5693 84.5299 37.504C84.9593 37.3267 85.3699 37.2007 85.7619 37.126C86.1633 37.0513 86.5273 37.014 86.8539 37.014C87.5259 37.014 88.0766 37.1167 88.5059 37.322C88.9446 37.5273 89.2713 37.84 89.4859 38.26C89.7006 38.6707 89.8079 39.2027 89.8079 39.856V43.216C89.8079 43.5053 89.7379 43.7293 89.5979 43.888C89.4579 44.0373 89.2573 44.112 88.9959 44.112C88.7346 44.112 88.5293 44.0373 88.3799 43.888C88.2399 43.7293 88.1699 43.5053 88.1699 43.216V42.544H88.2819C88.2166 42.8707 88.0859 43.1553 87.8899 43.398C87.7033 43.6313 87.4653 43.8133 87.1759 43.944C86.8866 44.0747 86.5553 44.14 86.1819 44.14ZM97.2496 44.112C96.9696 44.112 96.7549 44.0373 96.6056 43.888C96.4562 43.7293 96.3816 43.5053 96.3816 43.216V38.526H94.2256V39.324C94.2256 39.968 94.1836 40.5467 94.0996 41.06C94.0249 41.5733 93.9036 42.0213 93.7356 42.404C93.5769 42.7867 93.3669 43.1087 93.1056 43.37C92.8442 43.6313 92.5316 43.8413 92.1676 44C91.9716 44.084 91.7896 44.1073 91.6216 44.07C91.4629 44.0327 91.3276 43.9627 91.2156 43.86C91.1129 43.748 91.0476 43.6173 91.0196 43.468C90.9916 43.3093 91.0102 43.1553 91.0756 43.006C91.1409 42.8567 91.2669 42.7307 91.4536 42.628C91.6869 42.4973 91.8782 42.334 92.0276 42.138C92.1769 41.942 92.2936 41.7087 92.3776 41.438C92.4616 41.158 92.5222 40.8407 92.5596 40.486C92.5969 40.1313 92.6156 39.7253 92.6156 39.268V38.134C92.6156 37.8167 92.6996 37.574 92.8676 37.406C93.0356 37.238 93.2782 37.154 93.5956 37.154H97.1516C97.4689 37.154 97.7116 37.238 97.8796 37.406C98.0476 37.574 98.1316 37.8167 98.1316 38.134V43.216C98.1316 43.5053 98.0522 43.7293 97.8936 43.888C97.7442 44.0373 97.5296 44.112 97.2496 44.112ZM105.603 44.112C105.323 44.112 105.108 44.0373 104.959 43.888C104.81 43.7293 104.735 43.5053 104.735 43.216V38.526H102.579V39.324C102.579 39.968 102.537 40.5467 102.453 41.06C102.378 41.5733 102.257 42.0213 102.089 42.404C101.93 42.7867 101.72 43.1087 101.459 43.37C101.198 43.6313 100.885 43.8413 100.521 44C100.325 44.084 100.143 44.1073 99.9751 44.07C99.8164 44.0327 99.6811 43.9627 99.5691 43.86C99.4664 43.748 99.4011 43.6173 99.3731 43.468C99.3451 43.3093 99.3638 43.1553 99.4291 43.006C99.4944 42.8567 99.6204 42.7307 99.8071 42.628C100.04 42.4973 100.232 42.334 100.381 42.138C100.53 41.942 100.647 41.7087 100.731 41.438C100.815 41.158 100.876 40.8407 100.913 40.486C100.95 40.1313 100.969 39.7253 100.969 39.268V38.134C100.969 37.8167 101.053 37.574 101.221 37.406C101.389 37.238 101.632 37.154 101.949 37.154H105.505C105.822 37.154 106.065 37.238 106.233 37.406C106.401 37.574 106.485 37.8167 106.485 38.134V43.216C106.485 43.5053 106.406 43.7293 106.247 43.888C106.098 44.0373 105.883 44.112 105.603 44.112ZM109.337 44C109.057 44 108.842 43.9253 108.693 43.776C108.543 43.6267 108.469 43.412 108.469 43.132V37.924C108.469 37.6253 108.543 37.406 108.693 37.266C108.851 37.1167 109.071 37.042 109.351 37.042C109.631 37.042 109.845 37.1167 109.995 37.266C110.144 37.406 110.219 37.6253 110.219 37.924V39.422H112.025C112.93 39.422 113.611 39.6133 114.069 39.996C114.535 40.3787 114.769 40.9387 114.769 41.676C114.769 42.1427 114.657 42.5533 114.433 42.908C114.209 43.2533 113.891 43.524 113.481 43.72C113.079 43.9067 112.594 44 112.025 44H109.337ZM110.219 42.852H111.759C112.197 42.852 112.538 42.7587 112.781 42.572C113.023 42.376 113.145 42.082 113.145 41.69C113.145 41.3073 113.023 41.0273 112.781 40.85C112.538 40.6633 112.197 40.57 111.759 40.57H110.219V42.852ZM116.463 44.112C116.183 44.112 115.968 44.0373 115.819 43.888C115.669 43.7293 115.595 43.5053 115.595 43.216V37.924C115.595 37.6253 115.669 37.406 115.819 37.266C115.968 37.1167 116.183 37.042 116.463 37.042C116.743 37.042 116.957 37.1167 117.107 37.266C117.265 37.406 117.345 37.6253 117.345 37.924V43.216C117.345 43.8133 117.051 44.112 116.463 44.112Z" fill="#FF0020"/>
</g>
<defs>
<filter id="filter0_d_364_878" x="0" y="0" width="157" height="79" filterUnits="userSpaceOnUse" color-interpolation-filters="sRGB">
<feFlood flood-opacity="0" result="BackgroundImageFix"/>
<feColorMatrix in="SourceAlpha" type="matrix" values="0 0 0 0 0 0 0 0 0 0 0 0 0 0 0 0 0 0 127 0" result="hardAlpha"/>
<feOffset/>
<feGaussianBlur stdDeviation="5"/>
<feComposite in2="hardAlpha" operator="out"/>
<feColorMatrix type="matrix" values="0 0 0 0 0.827451 0 0 0 0 0.905882 0 0 0 0 0.909804 0 0 0 1 0"/>
<feBlend mode="normal" in2="BackgroundImageFix" result="effect1_dropShadow_364_878"/>
<feBlend mode="normal" in="SourceGraphic" in2="effect1_dropShadow_364_878" result="shape"/>
</filter>
</defs>
</svg>
