<svg width="27" height="27" viewBox="0 0 27 27" fill="none" xmlns="http://www.w3.org/2000/svg">
<path d="M3.375 11.25V21.375C3.375 22.6177 4.38236 23.625 5.625 23.625H21.375C22.6177 23.625 23.625 22.6177 23.625 21.375V11.25" stroke="#0F172A" stroke-width="1.5"/>
<path d="M16.6875 23.625V16.875C16.6875 15.6323 15.6802 14.625 14.4375 14.625H12.1875C10.9449 14.625 9.9375 15.6323 9.9375 16.875V23.625" stroke="#0F172A" stroke-width="1.5" stroke-miterlimit="16"/>
<path d="M24.5456 10.5347L22.6398 3.86457C22.557 3.57479 22.2922 3.375 21.9908 3.375H17.4375L17.9722 9.79174C17.9898 10.0017 18.1038 10.1914 18.2849 10.2993C18.7228 10.5604 19.5809 11.0441 20.25 11.25C21.3928 11.6016 23.0634 11.4748 24.0148 11.3578C24.4105 11.3092 24.6552 10.918 24.5456 10.5347Z" stroke="#0F172A" stroke-width="1.5"/>
<path d="M15.7498 11.25C16.3882 11.0536 17.1986 10.6041 17.652 10.3366C17.8679 10.2092 17.9867 9.96866 17.9659 9.71892L17.4373 3.375H9.56225L9.03359 9.71892C9.01278 9.96866 9.13164 10.2092 9.34745 10.3366C9.80083 10.6041 10.6113 11.0536 11.2498 11.25C12.9294 11.7668 14.0701 11.7668 15.7498 11.25Z" stroke="#0F172A" stroke-width="1.5"/>
<path d="M4.3597 3.86457L2.45394 10.5347C2.34442 10.918 2.5891 11.3092 2.98476 11.3578C3.93613 11.4748 5.60684 11.6016 6.74957 11.25C7.41869 11.0441 8.27677 10.5604 8.7147 10.2993C8.8957 10.1914 9.00984 10.0017 9.02735 9.79174L9.56207 3.375H5.00872C4.70735 3.375 4.44249 3.57479 4.3597 3.86457Z" stroke="#0F172A" stroke-width="1.5"/>
</svg>
